Patient4_TMGait_0pt4_03_right_31_EMG.mot
version=1
nRows=26
nColumns=33
inDegrees=no
endheader
time	1LAddLong	2LGlutMax	3LGlutMed	4LIliopsoas	5LSemiMemb	6LBicFemLong	7LRecFem	8LVastMed	9LVastLat	10LGasMed	11LTibAnt	12lTibPost	13LPeroneusLong	14LSol	15LExtDigLong	16LFlexDigLong	17RAddLong	18RGlutMax	19RGlutMed	20RIliopsoas	21RSemiMemb	22RBicFemLong	23RRecFem	24RVastMed	25RVastLat	26RGasMed	27RTibAnt	28RTibPost	29RPeroneusLong	30RSol	31RExtDigLong	32RFlexDigLong
41.155	-0.011902	0.023193	-0.042572	-0.002441	-0.13596	0.14404	-0.021667	0.006714	-0.018463	-0.05661	0.009308	0.002594	-0.002136	-0.020752	0.012665	-0.005035	0.006714	-0.10391	-0.21378	0.025787	0.086823	-0.025482	-0.3241	0.005798	-0.027924	0.046082	0.09613	0.014954	-0.26367	0.36591	-0.00351	-0.02121
41.156	-0.011597	0.074158	-0.036621	0.017853	0.038452	-0.05722	0.039825	0.000916	-0.040894	-0.012665	-0.002594	0.001526	0.006866	0.035095	0.006256	-0.005188	0.0177	-0.006866	-0.11429	-0.023651	0.047455	0.055847	-0.34225	-0.035706	-0.03891	0.015259	0.13947	-0.00061	-0.28229	0.65262	0.001678	-0.030212
41.157	-0.000916	0.10635	-0.03418	0.00824	0.095978	-0.42541	0.026703	0.004883	-0.062256	-0.01709	0.005341	0.014191	-0.006256	0.019073	0.00946	-0.001831	0.019226	0.000305	0.14969	0.00473	0.067596	0.10605	-0.30701	-0.039673	-0.04364	-0.014191	0.12207	0.055847	-0.18417	0.57632	-0.002594	-0.025787
41.158	0.012054	0.034943	-0.047913	0.006409	0.10223	-0.55023	-0.031281	-0.002747	-0.076752	0.001373	0.004425	0.008698	-0.005493	0.018463	0.005493	-0.002289	0.011902	-0.016632	-0.11002	-0.045776	0.097504	0.15137	-0.34256	0.012054	-0.047607	-0.034943	0.013123	-0.35645	-0.26123	-0.009613	-0.000153	-0.0354
41.159	0.021362	-0.063934	-0.057373	0.003967	0.054474	-0.41199	-0.064087	0.00351	-0.031586	0.018005	0.009766	0.010376	-0.02243	-0.015717	0.006866	-0.007477	-0.00061	0.00885	-0.13962	-0.084229	0.12238	0.2385	-0.34103	0.064087	-0.016937	-0.032959	-0.008545	0.22278	0.2034	-0.35065	-0.00473	-0.028839
41.16	0.023804	-0.059814	-0.057373	0.007172	0.011292	-0.21942	-0.13382	0.005951	0.11154	0.005035	0.011597	0.025787	-0.080566	-0.026093	0.009613	0.000153	-0.006866	0.006714	0.10544	-0.12299	0.10666	0.16388	-0.36194	0.013733	-0.028076	-0.01709	-0.012207	0.1976	0.58975	0.6134	-0.002289	-0.018616
41.161	0.035248	-0.022125	-0.05127	0.015564	0.067596	-0.070953	-0.1831	-0.002747	0.15411	-0.010376	0.004578	0.027313	0.002136	0.002747	0.00885	0.019073	0.005188	-0.006561	-0.046082	-0.11276	0.074768	0.00885	-0.37552	-0.002899	-0.037231	-0.000305	-0.023499	0.073395	0.4393	0.50751	-0.003357	-0.012054
41.162	0.022888	0.015869	-0.011749	0.002289	0.073242	-0.103	-0.017853	-0.003967	0.1947	-0.001678	0.005035	0.031891	0.020905	0.000153	0.001221	-0.002594	-0.012665	-0.011139	-0.084991	-0.10925	0.049438	-0.030212	-0.40314	0.035706	-0.023041	0.005188	-0.001984	-0.05188	0.085907	-0.020294	-0.005951	-0.012665
41.163	0.015106	0.06485	-0.02182	0.015411	0.045319	-0.13062	0.041199	-0.011597	0.086823	0.037689	0.017395	0.037079	0.053101	0.010071	-0.017395	0.016174	-0.011902	-0.019836	-0.11963	-0.047455	0.063019	-0.028992	-0.40222	0.076904	-0.023804	0.007324	-0.021515	-0.004578	0.031586	-0.10681	-0.002594	-0.023193
41.164	-0.001373	0.081787	-0.011139	0.012207	0.027618	-0.069275	0.044098	-0.003052	-0.028076	0.055237	0.007172	0.050201	0.033875	-0.003052	-0.01297	0.015717	-0.00946	-0.032501	-0.14008	-0.19394	0.052795	-0.020294	-0.37705	0.031738	-0.020599	0.013733	-0.047302	0.16602	0.21729	-0.040283	-0.003052	-0.018768
41.165	-0.014954	0.10269	-0.008545	0.000153	0.001526	0.025787	0.029755	0.001373	-0.047607	0.037994	0.004425	0.057373	0.021973	0.006561	-0.018158	0.025024	0.018921	0.023651	-0.10178	-0.24033	0.016174	0.06134	-0.37491	-0.025024	-0.034943	0.018005	0.01236	0.072174	-0.36057	-0.18112	0.001526	-0.024261
41.166	-0.026245	0.11841	-0.009003	0.000305	-0.017242	0.036163	0.04837	0.010681	-0.037689	0.029449	0.001068	0.050354	-0.006714	0.041504	-0.00946	0.020142	0.019531	0.010376	-0.060272	-0.1857	0.019073	0.10223	-0.35248	-0.000153	-0.048676	0.018616	0.034943	0.035248	-0.42709	-0.02243	0	-0.021057
41.167	-0.019226	0.13138	-0.009613	0.001221	-0.079956	0.039978	0.07782	0.012512	0.004272	0.015564	-0.000763	0.050354	0.17151	0.1297	-0.008698	0.020752	0.016022	0.017853	-0.078278	-0.009003	0.04425	0.13504	-0.37247	-0.006866	-0.037079	0.024414	-0.003357	-0.000458	-0.051117	0.30075	-0.001221	-0.02182
41.168	-0.005646	0.12299	-0.019379	0.01297	-0.10315	-0.10147	0.045471	0.011597	0.041504	-0.006714	0.00473	0.057068	0.18219	0.2034	-0.004578	0.014954	0.028534	-0.012817	-0.09491	0.2739	0.070038	0.14542	-0.39902	-0.038147	-0.043945	0.015411	0.042572	0.002594	-0.29266	0.23773	0	-0.023804
41.169	0.01236	0.13382	-0.015564	0.014038	-0.06012	-0.18341	0.036316	0.011902	0.06485	-0.028076	0.006104	0.056	-0.19302	0.14252	-0.002899	0.034637	0.029755	-0.08316	-0.10284	0.39734	0.11673	0.12497	-0.40192	-0.023499	-0.041504	0.007629	0.071259	-0.018463	-0.37262	0.053253	-0.000153	-0.020905
41.17	0.015259	0.16403	-0.006561	0.019073	-0.045929	-0.024414	0.019073	0.021667	0.11627	-0.020294	0.007019	0.045471	-0.14801	0.092773	-0.014801	0.029602	0.012665	-0.027161	-0.057831	0.24719	0.1294	0.11169	-0.41702	-0.0354	-0.025177	0.007935	0.060425	-0.02182	-0.27985	0.017242	-0.003052	-0.023651
41.171	0.019379	0.16388	-0.0177	0.028229	-0.051422	0.073242	-0.013123	0.031891	0.076904	-0.009003	-0.000153	0.029297	0.0354	0.13489	-0.009918	0.054016	0.002594	-0.079956	-0.004578	0.10071	0.11597	0.13428	-0.39078	-0.038147	-0.028839	0.010376	0.009766	-0.019836	0.096436	0.033112	-0.002441	-0.030212
41.172	0.022278	0.14236	-0.01236	0.015869	0.012665	0.08194	-0.011902	0.035095	0.023956	0.001221	-0.007935	0.069733	0.22308	0.1442	-0.01236	0.048065	0.012207	-0.084076	-0.003662	0.092163	0.089874	0.12054	-0.41397	-0.055084	-0.031738	0.003662	0.015869	-0.020599	-0.008545	0.018463	0.002899	-0.029755
41.173	0.009308	0.16647	-0.01236	0.005798	0.031891	0.050812	0.009308	0.019531	-0.035706	-0.021362	0.002747	0.049286	0.11734	0.20203	0.000458	0.037537	0.006561	-0.077362	-0.016937	0.050049	0.045929	0.035706	-0.39383	-0.063782	-0.029144	0.002441	0.054016	-0.002289	-0.082703	-0.010834	-0.000916	-0.025787
41.174	0.007629	0.16434	0.002136	-0.002747	0.037231	0.010071	-0.024872	-0.034943	-0.045471	-0.026855	0.001068	0.055695	-0.1683	0.31143	-0.003815	0.032043	0.009918	-0.054932	-0.12329	-0.034943	0.021057	0.030212	-0.39154	-0.033264	-0.045319	0.010681	0.047302	-0.008392	-0.069427	-0.066528	-0.001526	-0.022583
41.175	-0.007935	0.19852	0.009003	0.00412	0.033875	-0.051117	-0.038147	0.051727	0.000305	-0.024414	0.003815	0.03891	-0.037231	0.30518	-0.048676	0.015411	-0.003204	-0.054169	-0.25024	-0.045166	-0.006866	0.062714	-0.39078	-0.001984	-0.026703	0.014038	0.068359	0.004883	-0.11246	-0.21729	-0.009003	-0.026093
41.176	-0.012207	0.20706	0.02243	0.027008	0.032196	-0.078278	-0.017548	0.005493	0.014496	-0.034485	0.002136	0.025177	0.19424	0.35996	-0.036163	0.009003	-0.016632	-0.17044	-0.13947	-0.074158	-0.040588	0.112	-0.3978	0.011139	-0.005341	-0.005035	0.041199	-0.044403	-0.21973	-0.33249	0.000153	-0.025482
41.177	-0.010681	0.23529	0.023956	0.00824	-0.019073	-0.081787	-0.074768	0.016632	-0.011749	-0.0354	0.007782	0.019684	-0.2063	0.35446	-0.028076	0.002747	-0.018616	-0.13886	-0.028992	0.007172	-0.04776	0.068054	-0.42587	0.018463	-0.008392	-0.00946	0.02533	-0.016174	-0.25757	-0.44617	-0.001373	-0.021057
41.178	-0.006561	0.27618	0.006256	0.00824	-0.031891	-0.009155	-0.097351	-0.015564	-0.052948	-0.041199	0.007019	-0.00412	-0.19989	0.31281	-0.026703	-0.024567	-0.019684	-0.11261	-0.077362	0.081482	-0.042114	0.020294	-0.45303	0.020905	-0.001373	-0.013733	-0.039368	-0.024261	-0.12741	-0.39673	-0.005188	-0.01709
41.179	-0.00824	0.24109	0.010071	0.002136	-0.051727	0.06012	-0.12054	-0.020447	-0.004883	-0.062866	0.00824	-0.00824	0.12161	0.25482	-0.030975	-0.034943	-0.008698	-0.19959	-0.24658	-0.000305	-0.029297	-0.053406	-0.37537	-0.007629	-0.018311	-0.003815	-0.006714	-0.028534	-0.089569	0.025635	-0.001221	-0.019836
41.18	0.009155	0.25681	0.042114	-0.00946	-0.021057	0.20828	-0.052185	-0.013885	0.027618	-0.089569	-0.007019	-0.009308	0.000458	0.21637	-0.021362	-0.045166	-0.016937	-0.21988	-0.3122	-0.03006	0.040131	-0.11032	-0.42282	0.021515	-0.00885	0.012817	0.040894	-0.06485	0.001831	0.32715	-0.003052	-0.013733
